<?xml version="1.0" encoding="UTF-8" standalone="no"?>
<svg width="500px" height="230px" viewBox="0 0 500 230" version="1.1" xmlns="http://www.w3.org/2000/svg" xmlns:xlink="http://www.w3.org/1999/xlink">
    <defs></defs>
    <g stroke="none" stroke-width="1" fill="none" fill-rule="evenodd">
        <g fill="#000000">
            <g>
                <path d="M57.0114805,130 L57.0114805,230 L52.0104734,230 L50.0100706,223 C45.0090635,228 38.0076537,230 28.5057402,230 L21.5043304,230 C7.00140988,230 0,222.5 0,208.5 L0,180 C0,166 7.00140988,158.5 21.5043304,158.5 L28.5057402,158.5 C38.0076537,158.5 45.2564854,161.247372 50.0100706,166 L50.0100706,130 L57.0114805,130 Z M28.5057402,223 C38.0076537,223 45.0090635,220.5 50.0100706,215.5 L50.0100706,173 C45.0090635,168 38.0076537,166 28.5057402,166 L21.5043304,166 C12.0024169,166 7.00140988,170.5 7.00140988,180 L7.00140988,208.5 C7.00140988,218 12.0024169,223 21.5043304,223 L28.5057402,223 Z M92.0185299,198 L92.0185299,208.5 C92.0185299,218 97.019537,223 106.52145,223 L138.5,223 L138.5,230 L106.52145,230 C92.5186306,230 85.01712,223 85.01712,208.5 L85.01712,180 C85.01712,165.5 92,158.5 106.52145,158.5 L120.5,158.5 C135,158.5 142,165.5 142,180 L142,198 L92.0185299,198 Z M92.0185299,191 L135.027191,191 L135.027191,180 C135.027191,170.5 130.026184,166 120.52427,166 L106.52145,166 C97.019537,166 92.0185299,170.5 92.0185299,180 L92.0185299,191 Z M200.5,230 L190.5,230 L167,158.5 L174,158.5 L195.5,223 L217,158.5 L224,158.5 L200.5,230 Z M316,208.5 C316,222.5 309,230 294.5,230 L269.5,230 C255,230 248,223 248,208.5 L248,151.5 C248,137 255,130 269.5,130 L294.5,130 C309,130 316,137.5 316,151.5 L316,208.5 Z M255,208.5 C255,218.005256 259.99283,223 269.5,223 L294.5,223 C304.00717,223 309,218.005256 309,208.5 L309,151.5 C309,142 304,137 294.5,137 L269.5,137 C260,137 255,142 255,151.5 L255,208.5 Z M351,183.5 L351,230 L344,230 L344,130 L387.5,130 C401.5,130 408.5,137.5 408.5,151.5 L408.5,162 C408.5,176.257884 401.5,183.5 387,183.5 L351,183.5 Z M351,137 L351,176.5 L387.072471,176.533203 C396.5,176.5 401.5,171.5 401.5,162 L401.5,151.5 C401.5,142 397.00717,137 387.5,137 L351,137 Z M436,230 L436,223 L478.5,223 C488,223 493,218 493,208.5 L493,198 C493,188.5 488,183.5 478.5,183.5 L457,183.5 C443,183.5 436,176.5 436,162.5 L436,151.5 C436,137 442.5,130 457,130 L500,130 L500,137 L457,137 C447.5,137 443,142 443,151.5 L443,162.5 C443,172 447.99283,176.5 457.5,176.5 L478.5,176.5 C493,176.5 500,183.5 500,198 L500,208.5 C500,222.5 493,230 478.5,230 L436,230 Z"></path>
                <path d="M500,80 L400,80 L400,100 L500,100 L500,80 Z M500,40 L400,40 L400,60 L500,60 L500,40 Z M500,2.30603943e-14 L400,4.69069228e-15 L400,20 L500,20 L500,2.30603943e-14 Z M280,7.10542736e-15 L280,20 L320,20 L320,100 L340,100 L340,20 L380,20 L380,7.10542736e-15 L280,7.10542736e-15 Z M240,7.10542736e-15 L240,100 L260,100 L260,7.10542736e-15 L240,7.10542736e-15 Z M120,7.10542736e-15 L140,7.10542736e-15 L140,40 L200,40 L200,7.10542736e-15 L220,7.10542736e-15 L220,100 L200,100 L200,60 L140,60 L140,100 L120,100 L120,7.10542736e-15 Z M80,7.10542736e-15 L80,100 L100,100 L100,7.10542736e-15 L80,7.10542736e-15 Z M40,7.10542736e-15 L40,100 L60,100 L60,7.10542736e-15 L40,7.10542736e-15 Z M0,7.10542736e-15 L0,100 L20,100 L20,7.10542736e-15 L0,7.10542736e-15 Z"></path>
            </g>
        </g>
    </g>
</svg>